<?xml version="1.0" encoding="utf-8"?>
<!-- Generator: Adobe Illustrator 22.1.0, SVG Export Plug-In . SVG Version: 6.00 Build 0)  -->
<svg xmlns="http://www.w3.org/2000/svg" xmlns:xlink="http://www.w3.org/1999/xlink" version="1.1" id="Layer_1" x="0px" y="0px" viewBox="0 0 309.8 91.9" style="enable-background:new 0 0 309.8 91.9;" xml:space="preserve">
<style type="text/css">
	.st0{fill:#D2D2D3;}
	.st1{fill:#E15726;}
</style>
<g id="XMLID_160_">
	<path id="XMLID_184_" class="st0" d="M34.5,87.2c1.9-2.3,2.8-5.6,2.8-9.7V21.1h-6.2l-0.3,4.8l-0.3-0.5c-2.2-3.5-6.2-5.2-11.8-5.2   S8.5,21.8,5.1,25S0,32.7,0,38.5v14.9c0,6.1,1.6,10.7,4.9,13.9c3.2,3.2,7.7,4.8,13.4,4.8s9.7-1.9,11.9-5.6l0.4-0.6v11   c0,5.1-2.3,8.4-6.8,9.7l1.7,5.3C29.6,91,32.7,89.5,34.5,87.2z M27.2,62.2c-2.2,2.3-5.2,3.5-8.8,3.5s-6.5-1-8.5-3.1   s-3.1-5.1-3.1-8.9V39c0-4.1,1.1-7.2,3.3-9.3s5-3.1,8.4-3.1s6.3,1,8.5,2.9c2.3,1.9,3.4,4.8,3.4,8.5v14   C30.5,56.4,29.4,59.8,27.2,62.2z"/>
	<g id="XMLID_181_">
		<rect id="XMLID_146_" x="63.9" y="21.1" class="st0" width="6.8" height="49.8"/>
		<path id="XMLID_144_" class="st0" d="M70.1,1.3c-0.8-0.8-1.7-1.1-2.7-1.1s-2,0.4-2.8,1.2s-1.2,1.7-1.2,2.7s0.4,1.9,1.2,2.7    C65.4,7.6,66.3,8,67.4,8c1,0,2-0.4,2.7-1.1c0.8-0.8,1.1-1.7,1.1-2.8C71.3,3,70.9,2.1,70.1,1.3z"/>
	</g>
	<path id="XMLID_143_" class="st0" d="M90.5,28.5c2-1.3,4.3-2,6.8-2c2.4,0,3.1,0.1,5.3,0.7l1.7-6.4c-2.4-0.5-3.1-0.5-5-0.5h-0.4   c-4.5,0-8.3,1.1-11.3,3.3l-0.3,0.2v-2.7h-6.7v49.8h6.8v-37C87.5,31.7,88.5,29.8,90.5,28.5z"/>
	<path id="XMLID_141_" class="st0" d="M170.6,21.1H160v-5c0-3.8,0.9-6.5,2.6-7.8c1.7-1.3,3.7-2,5.8-2c0.7,0,1.4,0.1,2.2,0.2v-6   c-0.3-0.1-0.5-0.1-0.6-0.2c-0.5-0.2-0.8-0.3-1.6-0.3c-3,0-6,0.8-8.9,2.4c-1.8,0.9-3.3,2.6-4.5,5c-1.2,2.4-1.8,5.4-1.8,8.8V71h6.9   V27.5h10.5V21.1z"/>
	<path id="XMLID_139_" class="st0" d="M50.7,0.2c-1.1,0-2,0.4-2.8,1.1c-0.8,0.8-1.2,1.7-1.2,2.8s0.4,2,1.2,2.8S49.6,8,50.7,8   c1,0,2-0.4,2.7-1.1c0.8-0.8,1.2-1.7,1.2-2.8s-0.4-2-1.1-2.8C52.7,0.6,51.8,0.2,50.7,0.2z"/>
	<path id="XMLID_137_" class="st0" d="M54,21.1h-6.8v55c0,3.4-0.9,6.1-2.6,7.9c-0.7,0.7-1.5,1.3-2.6,1.8c-0.9,0.5-1.7,0.7-2.2,0.8   l1.3,5.2c3.5,0,6.6-1.3,9-3.8c2.5-2.5,3.8-5.7,3.9-9.4V21.1z"/>
	<g id="XMLID_172_">
		<path id="XMLID_174_" class="st0" d="M106.9,44.9c-0.8,1.6-1.4,3.3-1.7,5.1c-0.1,0.7-0.1,1.3-0.2,1.9c-0.1,2,0.1,4.2,0.4,7    c0.1,0.8,0.3,1.6,0.5,2.6c1.6,4.4,5.2,7.9,9.7,9.4c1.5,0.5,3.1,0.7,4.7,0.7h23.1h0.3v-0.3c0-1,0-2,0-3l0,0c0-0.5,0-1,0-1.5v-2.6    c-0.1-9.2-0.1-18-0.1-27.2v-0.5c-0.1-0.7-0.2-1.9-0.2-2.6l0,0c-0.8-4.9-3-8.1-7.1-10.4c-0.6-0.3-1.1-0.6-1.7-0.8    c-0.6-0.3-1.2-0.5-1.8-0.6c-0.6-0.2-1.3-0.3-1.9-0.5c-0.7-0.1-1.4-0.2-1.9-0.3c-0.7-0.1-1.3-0.1-1.9-0.2c-0.7-0.1-1.3-0.1-1.9-0.1    l0,0l0,0c-2.5-0.1-5.3-0.1-7.9-0.1l-3.5,0.1v6.8h12.6c7.9,0.9,10.1,2.2,10.4,9.3v0.4l-0.9-0.1c-1.5-0.1-3.2-0.2-4.9-0.3    c-1.5-0.1-2.9-0.1-4.2-0.1c-0.3,0-0.6,0-0.9,0c-1.8,0-3.5,0.1-5.1,0.3c-1.7,0.2-3.3,0.4-4.7,0.8c-2.6,0.7-4.3,1.6-5.7,2.7    C109.2,41.7,108.2,42.9,106.9,44.9z M111.7,52.7c0-0.4,0-0.8,0.1-1.1c0-0.3,0.1-0.7,0.2-1.1c0.3-1.6,1-2.9,2-4.1    c1-1.1,2.3-2,4-2.7c1.3-0.5,2.8-0.9,4.5-1.2c1.7-0.3,3.5-0.4,5.5-0.4c1.4,0,2.8,0.1,4.2,0.2c1.8,0.2,3.2,0.4,4.2,0.6l0.4,0.1    c0.1,0,0.2,0,0.3,0.1h0.1v23.4h-8.7l0,0v-0.2v0.2c-0.6,0-1.1,0-1.7,0h-0.2c-2.2,0-4.4-0.1-6.4-0.6c-2.4-0.6-4.2-1.7-5.8-3.4    c-0.4-0.5-0.8-1-1.1-1.5c-0.3-0.5-0.6-1.1-0.8-1.7c-0.2-0.6-0.4-1.2-0.5-1.8c-0.1-0.6-0.2-1.2-0.2-1.9v-1.5L111.7,52.7z"/>
		<path id="XMLID_132_" class="st0" d="M143.9,68.4L143.9,68.4L143.9,68.4z"/>
	</g>
	<path id="XMLID_169_" class="st0" d="M175.8,44.9c-0.8,1.6-1.4,3.3-1.7,5.1c-0.1,0.7-0.1,1.3-0.2,1.9c-0.1,2,0.1,4.2,0.4,7   c0.1,0.8,0.3,1.6,0.5,2.6c1.6,4.4,5.2,7.9,9.7,9.4c1.5,0.5,3.1,0.7,4.7,0.7h23.1h0.3v-0.3c0-1,0-2,0-3l0,0c0-0.5,0-1,0-1.5v-2.5   c-0.1-9.3-0.1-18-0.1-27.3v-0.5c-0.1-0.7-0.2-1.9-0.2-2.6l0,0c-0.8-4.9-3-8.1-7.1-10.4c-0.6-0.3-1.1-0.6-1.7-0.8   c-0.6-0.3-1.2-0.5-1.8-0.6c-0.6-0.2-1.3-0.3-1.9-0.5c-0.7-0.1-1.4-0.2-1.9-0.3c-0.7-0.1-1.3-0.1-1.9-0.2c-0.7-0.1-1.3-0.1-1.9-0.1   l0,0l0,0c-2.5-0.1-5.3-0.1-7.9-0.1l-3.5,0.1v6.8h12.6c7.9,0.9,10.1,2.2,10.4,9.3v0.4l-0.9-0.1c-1.5-0.1-3.2-0.2-4.9-0.3   c-1.5-0.1-2.9-0.1-4.2-0.1c-0.3,0-0.6,0-0.9,0c-1.8,0-3.5,0.1-5.1,0.3c-1.7,0.2-3.3,0.4-4.7,0.8c-2.6,0.7-4.3,1.6-5.7,2.7   C178.1,41.7,177.1,42.9,175.8,44.9z M180.6,52.7c0-0.4,0-0.8,0.1-1.1c0-0.3,0.1-0.7,0.2-1.1c0.3-1.6,1-2.9,2-4.1c1-1.1,2.3-2,4-2.7   c1.3-0.5,2.8-0.9,4.5-1.2c1.7-0.3,3.5-0.4,5.5-0.4c1.4,0,2.8,0.1,4.2,0.2c1.8,0.2,3.2,0.4,4.2,0.6l0.4,0.1c0.1,0,0.2,0,0.3,0.1h0.1   v23.4h-8.7l0,0v-0.2v0.2c-0.6,0-1.1,0-1.7,0h-0.2c-2.2,0-4.4-0.1-6.4-0.6c-2.4-0.6-4.2-1.7-5.8-3.4c-0.4-0.5-0.8-1-1.1-1.5   c-0.3-0.5-0.6-1.1-0.8-1.7c-0.2-0.6-0.4-1.2-0.5-1.8c-0.1-0.6-0.2-1.2-0.2-1.9v-1.5L180.6,52.7z"/>
	<g id="XMLID_161_">
		<path id="XMLID_166_" class="st1" d="M221.3,63.5l6.2-6.4c3.3,4.6,7.1,6.9,11.5,6.9s7.6-1.2,9.8-3.7c2.2-2.5,3.3-5.5,3.3-9.2    s-1.4-6.7-4.3-9c-2.8-2.3-6.5-3.5-11.1-3.5h-12.6L228.2,0h27.4v9.4h-18.7l-2.1,20.2h4.6c6.1,0,11.3,2.1,15.6,6.4s6.4,9.4,6.4,15.5    S259.3,62.7,255,67s-9.5,6.4-15.5,6.4c-3.7,0-7.2-0.9-10.4-2.6C225.9,68.9,223.3,66.5,221.3,63.5z"/>
		<path id="XMLID_162_" class="st1" d="M309.8,21.1v32.3c0,6.8-2.1,11.8-6.2,15s-9.1,4.8-14.9,4.8s-10.8-1.6-15-4.8    c-4.2-3.2-6.3-8.2-6.3-15V21c0-6.9,1.9-12.2,5.7-15.7c3.8-3.6,9-5.3,15.7-5.3c6.6,0,11.8,1.9,15.5,5.6    C308,9.4,309.8,14.5,309.8,21.1z M300.6,52V23.1c0-4.4-0.9-7.8-2.8-10.1c-1.8-2.3-4.9-3.4-9.2-3.4c-4.3,0-7.4,1.1-9.2,3.4    c-1.8,2.3-2.8,5.6-2.8,10v29.1c0,3.8,1.1,6.7,3.2,8.8c2.1,2.1,5,3.1,8.7,3.1s6.6-1.1,8.8-3.2C299.5,58.7,300.6,55.8,300.6,52z"/>
	</g>
</g>
</svg>

